<svg xmlns="http://www.w3.org/2000/svg" width="820" height="600"><defs><linearGradient id="g" x2="0" y2="1"><stop stop-color="#ffe8f4"/><stop offset="1" stop-color="#fff"/></linearGradient></defs><rect width="820" height="600" fill="url(#g)"/><circle cx="675" cy="218" r="3" fill="#fff" opacity=".85"/><circle cx="617" cy="73" r="2" fill="#fff" opacity=".85"/><circle cx="596" cy="192" r="3" fill="#fff" opacity=".85"/><circle cx="737" cy="105" r="2" fill="#fff" opacity=".85"/><circle cx="429" cy="160" r="5" fill="#fff" opacity=".85"/><circle cx="44" cy="184" r="4" fill="#fff" opacity=".85"/><circle cx="153" cy="71" r="5" fill="#fff" opacity=".85"/><circle cx="202" cy="183" r="5" fill="#fff" opacity=".85"/><circle cx="317" cy="240" r="2" fill="#fff" opacity=".85"/><circle cx="102" cy="266" r="4" fill="#fff" opacity=".85"/><circle cx="708" cy="175" r="3" fill="#fff" opacity=".85"/><circle cx="143" cy="235" r="3" fill="#fff" opacity=".85"/><circle cx="450" cy="189" r="3" fill="#fff" opacity=".85"/><circle cx="324" cy="83" r="4" fill="#fff" opacity=".85"/><circle cx="207" cy="214" r="2" fill="#fff" opacity=".85"/><circle cx="21" cy="214" r="5" fill="#fff" opacity=".85"/><circle cx="297" cy="195" r="5" fill="#fff" opacity=".85"/><circle cx="198" cy="275" r="5" fill="#fff" opacity=".85"/><circle cx="442" cy="175" r="4" fill="#fff" opacity=".85"/><circle cx="404" cy="243" r="3" fill="#fff" opacity=".85"/><g transform="translate(259 151)"><ellipse cx="0" cy="15" rx="45" ry="18" fill="#fff" opacity=".8"/><ellipse cx="-28" cy="15" rx="25" ry="13" fill="#fff" opacity=".8"/><ellipse cx="28" cy="15" rx="25" ry="13" fill="#fff" opacity=".8"/></g><g transform="translate(637 151)"><ellipse cx="0" cy="15" rx="45" ry="18" fill="#fff" opacity=".8"/><ellipse cx="-28" cy="15" rx="25" ry="13" fill="#fff" opacity=".8"/><ellipse cx="28" cy="15" rx="25" ry="13" fill="#fff" opacity=".8"/></g><path d="M0 470 Q150 390 300 465 T600 455 T820 465 V600 H0Z" fill="#e2d8ff"/><path d="M30 520 L48 439 L66 520Z" fill="#a9e8d5"/><rect x="45" y="515" width="6" height="28" fill="#a47659"/><path d="M125 520 L143 439 L161 520Z" fill="#a9e8d5"/><rect x="140" y="515" width="6" height="28" fill="#a47659"/><path d="M220 520 L238 439 L256 520Z" fill="#a9e8d5"/><rect x="235" y="515" width="6" height="28" fill="#a47659"/><path d="M315 520 L333 439 L351 520Z" fill="#a9e8d5"/><rect x="330" y="515" width="6" height="28" fill="#a47659"/><path d="M410 520 L428 439 L446 520Z" fill="#a9e8d5"/><rect x="425" y="515" width="6" height="28" fill="#a47659"/><path d="M505 520 L523 439 L541 520Z" fill="#a9e8d5"/><rect x="520" y="515" width="6" height="28" fill="#a47659"/><path d="M600 520 L618 439 L636 520Z" fill="#a9e8d5"/><rect x="615" y="515" width="6" height="28" fill="#a47659"/><path d="M695 520 L713 439 L731 520Z" fill="#a9e8d5"/><rect x="710" y="515" width="6" height="28" fill="#a47659"/><path d="M790 520 L808 439 L826 520Z" fill="#a9e8d5"/><rect x="805" y="515" width="6" height="28" fill="#a47659"/><g transform="translate(410 350)"><circle cy="-55" r="34" fill="#ffd8c0"/><path d="M-32 -70 Q0 -115 32 -70 Q0 -135 -32 -70" fill="#8d67d8"/><path d="M-12 -20 L0 65 L12 -20Z" fill="#ffd36e"/><ellipse cx="-48" cy="10" rx="58" ry="25" fill="#fff" opacity=".8" transform="rotate(-25 -48 10)"/><ellipse cx="48" cy="10" rx="58" ry="25" fill="#fff" opacity=".8" transform="rotate(25 48 10)"/></g><text x="410" y="565" text-anchor="middle" font-family="sans-serif" font-size="25" font-weight="700" fill="#704b87">Foresta delle Fate • 84</text></svg>