<svg xmlns="http://www.w3.org/2000/svg" width="820" height="600"><defs><linearGradient id="g" x2="0" y2="1"><stop stop-color="#d8f7ff"/><stop offset="1" stop-color="#fff"/></linearGradient></defs><rect width="820" height="600" fill="url(#g)"/><circle cx="763" cy="264" r="3" fill="#fff" opacity=".85"/><circle cx="275" cy="201" r="3" fill="#fff" opacity=".85"/><circle cx="263" cy="225" r="2" fill="#fff" opacity=".85"/><circle cx="688" cy="255" r="4" fill="#fff" opacity=".85"/><circle cx="92" cy="34" r="5" fill="#fff" opacity=".85"/><circle cx="567" cy="144" r="5" fill="#fff" opacity=".85"/><circle cx="45" cy="47" r="5" fill="#fff" opacity=".85"/><circle cx="581" cy="249" r="5" fill="#fff" opacity=".85"/><circle cx="736" cy="28" r="2" fill="#fff" opacity=".85"/><circle cx="686" cy="87" r="4" fill="#fff" opacity=".85"/><circle cx="120" cy="160" r="2" fill="#fff" opacity=".85"/><circle cx="471" cy="95" r="3" fill="#fff" opacity=".85"/><circle cx="530" cy="100" r="4" fill="#fff" opacity=".85"/><circle cx="710" cy="249" r="3" fill="#fff" opacity=".85"/><circle cx="615" cy="35" r="5" fill="#fff" opacity=".85"/><circle cx="507" cy="98" r="2" fill="#fff" opacity=".85"/><circle cx="343" cy="138" r="3" fill="#fff" opacity=".85"/><circle cx="347" cy="272" r="3" fill="#fff" opacity=".85"/><circle cx="534" cy="270" r="3" fill="#fff" opacity=".85"/><circle cx="369" cy="43" r="3" fill="#fff" opacity=".85"/><g transform="translate(190 150)"><ellipse cx="0" cy="15" rx="45" ry="18" fill="#fff" opacity=".8"/><ellipse cx="-28" cy="15" rx="25" ry="13" fill="#fff" opacity=".8"/><ellipse cx="28" cy="15" rx="25" ry="13" fill="#fff" opacity=".8"/></g><g transform="translate(610 150)"><ellipse cx="0" cy="15" rx="45" ry="18" fill="#fff" opacity=".8"/><ellipse cx="-28" cy="15" rx="25" ry="13" fill="#fff" opacity=".8"/><ellipse cx="28" cy="15" rx="25" ry="13" fill="#fff" opacity=".8"/></g><path d="M0 470 Q150 390 300 465 T600 455 T820 465 V600 H0Z" fill="#ccebd2"/><path d="M30 520 L48 439 L66 520Z" fill="#9edcff"/><rect x="45" y="515" width="6" height="28" fill="#a47659"/><path d="M125 520 L143 439 L161 520Z" fill="#9edcff"/><rect x="140" y="515" width="6" height="28" fill="#a47659"/><path d="M220 520 L238 439 L256 520Z" fill="#9edcff"/><rect x="235" y="515" width="6" height="28" fill="#a47659"/><path d="M315 520 L333 439 L351 520Z" fill="#9edcff"/><rect x="330" y="515" width="6" height="28" fill="#a47659"/><path d="M410 520 L428 439 L446 520Z" fill="#9edcff"/><rect x="425" y="515" width="6" height="28" fill="#a47659"/><path d="M505 520 L523 439 L541 520Z" fill="#9edcff"/><rect x="520" y="515" width="6" height="28" fill="#a47659"/><path d="M600 520 L618 439 L636 520Z" fill="#9edcff"/><rect x="615" y="515" width="6" height="28" fill="#a47659"/><path d="M695 520 L713 439 L731 520Z" fill="#9edcff"/><rect x="710" y="515" width="6" height="28" fill="#a47659"/><path d="M790 520 L808 439 L826 520Z" fill="#9edcff"/><rect x="805" y="515" width="6" height="28" fill="#a47659"/><g transform="translate(385 345)"><ellipse cx="60" cy="80" rx="80" ry="48" fill="#ffd79a"/><circle cx="-5" cy="55" r="43" fill="#ffd79a"/><path d="M-28 25 L-8 -18 L10 30Z" fill="#fff1a8"/><path d="M-18 42 Q-50 20 -65 50 Q-45 72 -15 65" fill="#9edcff"/><circle cx="-15" cy="48" r="5" fill="#55345e"/><path d="M20 30 Q45 5 65 30" stroke="#bd8cff" stroke-width="7" fill="none"/><path d="M120 58 Q165 25 185 55 Q155 85 128 85" fill="#9edcff"/></g><text x="410" y="565" text-anchor="middle" font-family="sans-serif" font-size="25" font-weight="700" fill="#704b87">Valle degli Unicorni • 51</text></svg>