<svg xmlns="http://www.w3.org/2000/svg" width="820" height="600"><defs><linearGradient id="g" x2="0" y2="1"><stop stop-color="#dff7ff"/><stop offset="1" stop-color="#fff"/></linearGradient></defs><rect width="820" height="600" fill="url(#g)"/><circle cx="518" cy="160" r="5" fill="#fff" opacity=".85"/><circle cx="317" cy="194" r="5" fill="#fff" opacity=".85"/><circle cx="618" cy="182" r="5" fill="#fff" opacity=".85"/><circle cx="553" cy="233" r="4" fill="#fff" opacity=".85"/><circle cx="447" cy="174" r="5" fill="#fff" opacity=".85"/><circle cx="149" cy="179" r="2" fill="#fff" opacity=".85"/><circle cx="381" cy="116" r="5" fill="#fff" opacity=".85"/><circle cx="771" cy="91" r="2" fill="#fff" opacity=".85"/><circle cx="309" cy="42" r="5" fill="#fff" opacity=".85"/><circle cx="223" cy="261" r="4" fill="#fff" opacity=".85"/><circle cx="514" cy="144" r="4" fill="#fff" opacity=".85"/><circle cx="329" cy="57" r="2" fill="#fff" opacity=".85"/><circle cx="709" cy="28" r="2" fill="#fff" opacity=".85"/><circle cx="734" cy="25" r="3" fill="#fff" opacity=".85"/><circle cx="530" cy="131" r="5" fill="#fff" opacity=".85"/><circle cx="71" cy="278" r="5" fill="#fff" opacity=".85"/><circle cx="55" cy="194" r="4" fill="#fff" opacity=".85"/><circle cx="134" cy="97" r="4" fill="#fff" opacity=".85"/><circle cx="372" cy="149" r="5" fill="#fff" opacity=".85"/><circle cx="644" cy="160" r="3" fill="#fff" opacity=".85"/><g transform="translate(216 104)"><ellipse cx="0" cy="15" rx="45" ry="18" fill="#fff" opacity=".8"/><ellipse cx="-28" cy="15" rx="25" ry="13" fill="#fff" opacity=".8"/><ellipse cx="28" cy="15" rx="25" ry="13" fill="#fff" opacity=".8"/></g><g transform="translate(648 104)"><ellipse cx="0" cy="15" rx="45" ry="18" fill="#fff" opacity=".8"/><ellipse cx="-28" cy="15" rx="25" ry="13" fill="#fff" opacity=".8"/><ellipse cx="28" cy="15" rx="25" ry="13" fill="#fff" opacity=".8"/></g><path d="M0 470 Q150 390 300 465 T600 455 T820 465 V600 H0Z" fill="#ffdff2"/><path d="M30 520 L48 447 L66 520Z" fill="#bce8cf"/><rect x="45" y="515" width="6" height="28" fill="#a47659"/><path d="M125 520 L143 447 L161 520Z" fill="#bce8cf"/><rect x="140" y="515" width="6" height="28" fill="#a47659"/><path d="M220 520 L238 447 L256 520Z" fill="#bce8cf"/><rect x="235" y="515" width="6" height="28" fill="#a47659"/><path d="M315 520 L333 447 L351 520Z" fill="#bce8cf"/><rect x="330" y="515" width="6" height="28" fill="#a47659"/><path d="M410 520 L428 447 L446 520Z" fill="#bce8cf"/><rect x="425" y="515" width="6" height="28" fill="#a47659"/><path d="M505 520 L523 447 L541 520Z" fill="#bce8cf"/><rect x="520" y="515" width="6" height="28" fill="#a47659"/><path d="M600 520 L618 447 L636 520Z" fill="#bce8cf"/><rect x="615" y="515" width="6" height="28" fill="#a47659"/><path d="M695 520 L713 447 L731 520Z" fill="#bce8cf"/><rect x="710" y="515" width="6" height="28" fill="#a47659"/><path d="M790 520 L808 447 L826 520Z" fill="#bce8cf"/><rect x="805" y="515" width="6" height="28" fill="#a47659"/><g transform="translate(420 340)"><circle cx="0" cy="-48" r="45" fill="#ffd8c0"/><path d="M-45 -45 Q0 -105 45 -45 Q15 -80 0 -65 Q-25 -90 -45 -45" fill="#ff79b2"/><path d="M-35 -5 Q0 20 35 -5 L60 100 Q0 145 -60 100Z" fill="#fff0a8"/><path d="M-60 100 Q-105 125 -105 88 Q-75 70 -45 65 M60 100 Q105 125 105 88 Q75 70 45 65" fill="#bce8cf"/></g><text x="410" y="565" text-anchor="middle" font-family="sans-serif" font-size="25" font-weight="700" fill="#704b87">Laguna delle Sirene • 53</text></svg>