<svg xmlns="http://www.w3.org/2000/svg" width="820" height="600"><defs><linearGradient id="g" x2="0" y2="1"><stop stop-color="#dff7ff"/><stop offset="1" stop-color="#fff"/></linearGradient></defs><rect width="820" height="600" fill="url(#g)"/><circle cx="263" cy="175" r="2" fill="#fff" opacity=".85"/><circle cx="469" cy="46" r="2" fill="#fff" opacity=".85"/><circle cx="489" cy="193" r="5" fill="#fff" opacity=".85"/><circle cx="463" cy="34" r="2" fill="#fff" opacity=".85"/><circle cx="29" cy="91" r="3" fill="#fff" opacity=".85"/><circle cx="175" cy="134" r="4" fill="#fff" opacity=".85"/><circle cx="532" cy="58" r="2" fill="#fff" opacity=".85"/><circle cx="720" cy="221" r="5" fill="#fff" opacity=".85"/><circle cx="555" cy="234" r="3" fill="#fff" opacity=".85"/><circle cx="78" cy="67" r="4" fill="#fff" opacity=".85"/><circle cx="797" cy="166" r="3" fill="#fff" opacity=".85"/><circle cx="312" cy="276" r="5" fill="#fff" opacity=".85"/><circle cx="20" cy="254" r="2" fill="#fff" opacity=".85"/><circle cx="752" cy="140" r="5" fill="#fff" opacity=".85"/><circle cx="614" cy="252" r="2" fill="#fff" opacity=".85"/><circle cx="748" cy="270" r="4" fill="#fff" opacity=".85"/><circle cx="652" cy="198" r="5" fill="#fff" opacity=".85"/><circle cx="102" cy="191" r="5" fill="#fff" opacity=".85"/><circle cx="753" cy="248" r="5" fill="#fff" opacity=".85"/><circle cx="477" cy="159" r="2" fill="#fff" opacity=".85"/><g transform="translate(220 100)"><ellipse cx="0" cy="15" rx="45" ry="18" fill="#fff" opacity=".8"/><ellipse cx="-28" cy="15" rx="25" ry="13" fill="#fff" opacity=".8"/><ellipse cx="28" cy="15" rx="25" ry="13" fill="#fff" opacity=".8"/></g><g transform="translate(580 100)"><ellipse cx="0" cy="15" rx="45" ry="18" fill="#fff" opacity=".8"/><ellipse cx="-28" cy="15" rx="25" ry="13" fill="#fff" opacity=".8"/><ellipse cx="28" cy="15" rx="25" ry="13" fill="#fff" opacity=".8"/></g><path d="M0 470 Q150 390 300 465 T600 455 T820 465 V600 H0Z" fill="#ffdff2"/><path d="M30 520 L48 439 L66 520Z" fill="#bce8cf"/><rect x="45" y="515" width="6" height="28" fill="#a47659"/><path d="M125 520 L143 439 L161 520Z" fill="#bce8cf"/><rect x="140" y="515" width="6" height="28" fill="#a47659"/><path d="M220 520 L238 439 L256 520Z" fill="#bce8cf"/><rect x="235" y="515" width="6" height="28" fill="#a47659"/><path d="M315 520 L333 439 L351 520Z" fill="#bce8cf"/><rect x="330" y="515" width="6" height="28" fill="#a47659"/><path d="M410 520 L428 439 L446 520Z" fill="#bce8cf"/><rect x="425" y="515" width="6" height="28" fill="#a47659"/><path d="M505 520 L523 439 L541 520Z" fill="#bce8cf"/><rect x="520" y="515" width="6" height="28" fill="#a47659"/><path d="M600 520 L618 439 L636 520Z" fill="#bce8cf"/><rect x="615" y="515" width="6" height="28" fill="#a47659"/><path d="M695 520 L713 439 L731 520Z" fill="#bce8cf"/><rect x="710" y="515" width="6" height="28" fill="#a47659"/><path d="M790 520 L808 439 L826 520Z" fill="#bce8cf"/><rect x="805" y="515" width="6" height="28" fill="#a47659"/><g transform="translate(385 345)"><ellipse cx="60" cy="80" rx="80" ry="48" fill="#fff0a8"/><circle cx="-5" cy="55" r="43" fill="#fff0a8"/><path d="M-28 25 L-8 -18 L10 30Z" fill="#fff1a8"/><path d="M-18 42 Q-50 20 -65 50 Q-45 72 -15 65" fill="#bce8cf"/><circle cx="-15" cy="48" r="5" fill="#55345e"/><path d="M20 30 Q45 5 65 30" stroke="#bd8cff" stroke-width="7" fill="none"/><path d="M120 58 Q165 25 185 55 Q155 85 128 85" fill="#bce8cf"/></g><text x="410" y="565" text-anchor="middle" font-family="sans-serif" font-size="25" font-weight="700" fill="#704b87">Valle degli Unicorni • 81</text></svg>