<svg xmlns="http://www.w3.org/2000/svg" width="820" height="600"><defs><linearGradient id="g" x2="0" y2="1"><stop stop-color="#dff7ff"/><stop offset="1" stop-color="#fff"/></linearGradient></defs><rect width="820" height="600" fill="url(#g)"/><circle cx="298" cy="127" r="3" fill="#fff" opacity=".85"/><circle cx="80" cy="212" r="2" fill="#fff" opacity=".85"/><circle cx="338" cy="174" r="5" fill="#fff" opacity=".85"/><circle cx="485" cy="118" r="2" fill="#fff" opacity=".85"/><circle cx="581" cy="251" r="4" fill="#fff" opacity=".85"/><circle cx="730" cy="50" r="2" fill="#fff" opacity=".85"/><circle cx="462" cy="172" r="4" fill="#fff" opacity=".85"/><circle cx="101" cy="81" r="4" fill="#fff" opacity=".85"/><circle cx="218" cy="124" r="5" fill="#fff" opacity=".85"/><circle cx="422" cy="241" r="2" fill="#fff" opacity=".85"/><circle cx="524" cy="68" r="5" fill="#fff" opacity=".85"/><circle cx="120" cy="104" r="5" fill="#fff" opacity=".85"/><circle cx="678" cy="64" r="5" fill="#fff" opacity=".85"/><circle cx="301" cy="189" r="4" fill="#fff" opacity=".85"/><circle cx="780" cy="133" r="3" fill="#fff" opacity=".85"/><circle cx="624" cy="128" r="5" fill="#fff" opacity=".85"/><circle cx="396" cy="224" r="2" fill="#fff" opacity=".85"/><circle cx="594" cy="137" r="5" fill="#fff" opacity=".85"/><circle cx="197" cy="95" r="2" fill="#fff" opacity=".85"/><circle cx="145" cy="166" r="4" fill="#fff" opacity=".85"/><g transform="translate(212 108)"><ellipse cx="0" cy="15" rx="45" ry="18" fill="#fff" opacity=".8"/><ellipse cx="-28" cy="15" rx="25" ry="13" fill="#fff" opacity=".8"/><ellipse cx="28" cy="15" rx="25" ry="13" fill="#fff" opacity=".8"/></g><g transform="translate(616 108)"><ellipse cx="0" cy="15" rx="45" ry="18" fill="#fff" opacity=".8"/><ellipse cx="-28" cy="15" rx="25" ry="13" fill="#fff" opacity=".8"/><ellipse cx="28" cy="15" rx="25" ry="13" fill="#fff" opacity=".8"/></g><path d="M0 470 Q150 390 300 465 T600 455 T820 465 V600 H0Z" fill="#ffdff2"/><path d="M30 520 L48 455 L66 520Z" fill="#bce8cf"/><rect x="45" y="515" width="6" height="28" fill="#a47659"/><path d="M125 520 L143 455 L161 520Z" fill="#bce8cf"/><rect x="140" y="515" width="6" height="28" fill="#a47659"/><path d="M220 520 L238 455 L256 520Z" fill="#bce8cf"/><rect x="235" y="515" width="6" height="28" fill="#a47659"/><path d="M315 520 L333 455 L351 520Z" fill="#bce8cf"/><rect x="330" y="515" width="6" height="28" fill="#a47659"/><path d="M410 520 L428 455 L446 520Z" fill="#bce8cf"/><rect x="425" y="515" width="6" height="28" fill="#a47659"/><path d="M505 520 L523 455 L541 520Z" fill="#bce8cf"/><rect x="520" y="515" width="6" height="28" fill="#a47659"/><path d="M600 520 L618 455 L636 520Z" fill="#bce8cf"/><rect x="615" y="515" width="6" height="28" fill="#a47659"/><path d="M695 520 L713 455 L731 520Z" fill="#bce8cf"/><rect x="710" y="515" width="6" height="28" fill="#a47659"/><path d="M790 520 L808 455 L826 520Z" fill="#bce8cf"/><rect x="805" y="515" width="6" height="28" fill="#a47659"/><g transform="translate(420 360)"><ellipse cy="65" rx="105" ry="70" fill="#bce8cf"/><circle cx="-60" cy="0" r="55" fill="#bce8cf"/><path d="M-95 -30 L-130 -80 L-70 -55Z M-40 -35 L-5 -80 L0 -30Z" fill="#fff0a8"/><circle cx="-75" cy="-8" r="7" fill="#55345e"/><path d="M45 25 Q110 -10 145 25 Q100 48 55 55" fill="#fff0a8"/></g><text x="410" y="565" text-anchor="middle" font-family="sans-serif" font-size="25" font-weight="700" fill="#704b87">Drago Gentile • 25</text></svg>