<svg xmlns="http://www.w3.org/2000/svg" width="820" height="600"><defs><linearGradient id="g" x2="0" y2="1"><stop stop-color="#dff7ff"/><stop offset="1" stop-color="#fff"/></linearGradient></defs><rect width="820" height="600" fill="url(#g)"/><circle cx="140" cy="149" r="3" fill="#fff" opacity=".85"/><circle cx="580" cy="131" r="5" fill="#fff" opacity=".85"/><circle cx="446" cy="202" r="2" fill="#fff" opacity=".85"/><circle cx="367" cy="138" r="2" fill="#fff" opacity=".85"/><circle cx="25" cy="222" r="3" fill="#fff" opacity=".85"/><circle cx="541" cy="263" r="4" fill="#fff" opacity=".85"/><circle cx="211" cy="238" r="3" fill="#fff" opacity=".85"/><circle cx="551" cy="54" r="5" fill="#fff" opacity=".85"/><circle cx="449" cy="92" r="4" fill="#fff" opacity=".85"/><circle cx="237" cy="62" r="3" fill="#fff" opacity=".85"/><circle cx="636" cy="203" r="5" fill="#fff" opacity=".85"/><circle cx="771" cy="238" r="4" fill="#fff" opacity=".85"/><circle cx="358" cy="68" r="4" fill="#fff" opacity=".85"/><circle cx="206" cy="240" r="2" fill="#fff" opacity=".85"/><circle cx="364" cy="35" r="2" fill="#fff" opacity=".85"/><circle cx="682" cy="180" r="4" fill="#fff" opacity=".85"/><circle cx="332" cy="34" r="5" fill="#fff" opacity=".85"/><circle cx="351" cy="169" r="5" fill="#fff" opacity=".85"/><circle cx="342" cy="194" r="4" fill="#fff" opacity=".85"/><circle cx="488" cy="92" r="2" fill="#fff" opacity=".85"/><g transform="translate(164 116)"><ellipse cx="0" cy="15" rx="45" ry="18" fill="#fff" opacity=".8"/><ellipse cx="-28" cy="15" rx="25" ry="13" fill="#fff" opacity=".8"/><ellipse cx="28" cy="15" rx="25" ry="13" fill="#fff" opacity=".8"/></g><g transform="translate(572 116)"><ellipse cx="0" cy="15" rx="45" ry="18" fill="#fff" opacity=".8"/><ellipse cx="-28" cy="15" rx="25" ry="13" fill="#fff" opacity=".8"/><ellipse cx="28" cy="15" rx="25" ry="13" fill="#fff" opacity=".8"/></g><path d="M0 470 Q150 390 300 465 T600 455 T820 465 V600 H0Z" fill="#ffdff2"/><path d="M30 520 L48 455 L66 520Z" fill="#bce8cf"/><rect x="45" y="515" width="6" height="28" fill="#a47659"/><path d="M125 520 L143 455 L161 520Z" fill="#bce8cf"/><rect x="140" y="515" width="6" height="28" fill="#a47659"/><path d="M220 520 L238 455 L256 520Z" fill="#bce8cf"/><rect x="235" y="515" width="6" height="28" fill="#a47659"/><path d="M315 520 L333 455 L351 520Z" fill="#bce8cf"/><rect x="330" y="515" width="6" height="28" fill="#a47659"/><path d="M410 520 L428 455 L446 520Z" fill="#bce8cf"/><rect x="425" y="515" width="6" height="28" fill="#a47659"/><path d="M505 520 L523 455 L541 520Z" fill="#bce8cf"/><rect x="520" y="515" width="6" height="28" fill="#a47659"/><path d="M600 520 L618 455 L636 520Z" fill="#bce8cf"/><rect x="615" y="515" width="6" height="28" fill="#a47659"/><path d="M695 520 L713 455 L731 520Z" fill="#bce8cf"/><rect x="710" y="515" width="6" height="28" fill="#a47659"/><path d="M790 520 L808 455 L826 520Z" fill="#bce8cf"/><rect x="805" y="515" width="6" height="28" fill="#a47659"/><g transform="translate(410 360)"><path d="M-65 -20 L-55 -90 L-15 -55 Q0 -60 15 -55 L55 -90 L65 -20 V70 Q0 110 -65 70Z" fill="#fff0a8"/><circle cx="-25" cy="-15" r="6" fill="#55345e"/><circle cx="25" cy="-15" r="6" fill="#55345e"/><path d="M-8 5 Q0 15 8 5" stroke="#55345e" stroke-width="5" fill="none"/></g><text x="410" y="565" text-anchor="middle" font-family="sans-serif" font-size="25" font-weight="700" fill="#704b87">Regno dei Gattini • 49</text></svg>