<svg xmlns="http://www.w3.org/2000/svg" width="820" height="600"><defs><linearGradient id="g" x2="0" y2="1"><stop stop-color="#f4e1ff"/><stop offset="1" stop-color="#fff"/></linearGradient></defs><rect width="820" height="600" fill="url(#g)"/><circle cx="703" cy="200" r="2" fill="#fff" opacity=".85"/><circle cx="500" cy="240" r="2" fill="#fff" opacity=".85"/><circle cx="791" cy="119" r="4" fill="#fff" opacity=".85"/><circle cx="431" cy="112" r="3" fill="#fff" opacity=".85"/><circle cx="545" cy="100" r="4" fill="#fff" opacity=".85"/><circle cx="545" cy="186" r="3" fill="#fff" opacity=".85"/><circle cx="397" cy="54" r="4" fill="#fff" opacity=".85"/><circle cx="668" cy="130" r="4" fill="#fff" opacity=".85"/><circle cx="72" cy="233" r="5" fill="#fff" opacity=".85"/><circle cx="404" cy="38" r="4" fill="#fff" opacity=".85"/><circle cx="56" cy="192" r="5" fill="#fff" opacity=".85"/><circle cx="155" cy="239" r="4" fill="#fff" opacity=".85"/><circle cx="429" cy="31" r="5" fill="#fff" opacity=".85"/><circle cx="301" cy="147" r="2" fill="#fff" opacity=".85"/><circle cx="778" cy="231" r="5" fill="#fff" opacity=".85"/><circle cx="727" cy="35" r="2" fill="#fff" opacity=".85"/><circle cx="53" cy="61" r="4" fill="#fff" opacity=".85"/><circle cx="68" cy="50" r="3" fill="#fff" opacity=".85"/><circle cx="166" cy="156" r="5" fill="#fff" opacity=".85"/><circle cx="234" cy="36" r="3" fill="#fff" opacity=".85"/><g transform="translate(205 105)"><ellipse cx="0" cy="15" rx="45" ry="18" fill="#fff" opacity=".8"/><ellipse cx="-28" cy="15" rx="25" ry="13" fill="#fff" opacity=".8"/><ellipse cx="28" cy="15" rx="25" ry="13" fill="#fff" opacity=".8"/></g><g transform="translate(655 105)"><ellipse cx="0" cy="15" rx="45" ry="18" fill="#fff" opacity=".8"/><ellipse cx="-28" cy="15" rx="25" ry="13" fill="#fff" opacity=".8"/><ellipse cx="28" cy="15" rx="25" ry="13" fill="#fff" opacity=".8"/></g><path d="M0 470 Q150 390 300 465 T600 455 T820 465 V600 H0Z" fill="#d7e9ff"/><path d="M30 520 L48 439 L66 520Z" fill="#c9b6ff"/><rect x="45" y="515" width="6" height="28" fill="#a47659"/><path d="M125 520 L143 439 L161 520Z" fill="#c9b6ff"/><rect x="140" y="515" width="6" height="28" fill="#a47659"/><path d="M220 520 L238 439 L256 520Z" fill="#c9b6ff"/><rect x="235" y="515" width="6" height="28" fill="#a47659"/><path d="M315 520 L333 439 L351 520Z" fill="#c9b6ff"/><rect x="330" y="515" width="6" height="28" fill="#a47659"/><path d="M410 520 L428 439 L446 520Z" fill="#c9b6ff"/><rect x="425" y="515" width="6" height="28" fill="#a47659"/><path d="M505 520 L523 439 L541 520Z" fill="#c9b6ff"/><rect x="520" y="515" width="6" height="28" fill="#a47659"/><path d="M600 520 L618 439 L636 520Z" fill="#c9b6ff"/><rect x="615" y="515" width="6" height="28" fill="#a47659"/><path d="M695 520 L713 439 L731 520Z" fill="#c9b6ff"/><rect x="710" y="515" width="6" height="28" fill="#a47659"/><path d="M790 520 L808 439 L826 520Z" fill="#c9b6ff"/><rect x="805" y="515" width="6" height="28" fill="#a47659"/><g><circle cx="410" cy="330" r="78" fill="#ffc6e0"/><path d="M410 250 L450 410 L410 390 L370 410Z" fill="#fff"/><circle cx="650" cy="225" r="42" fill="#c9b6ff"/><circle cx="650" cy="225" r="15" fill="#fff"/></g><text x="410" y="565" text-anchor="middle" font-family="sans-serif" font-size="25" font-weight="700" fill="#704b87">Cielo Arcobaleno • 6</text></svg>