<svg xmlns="http://www.w3.org/2000/svg" width="820" height="600"><defs><linearGradient id="g" x2="0" y2="1"><stop stop-color="#f4e1ff"/><stop offset="1" stop-color="#fff"/></linearGradient></defs><rect width="820" height="600" fill="url(#g)"/><circle cx="131" cy="225" r="3" fill="#fff" opacity=".85"/><circle cx="694" cy="189" r="2" fill="#fff" opacity=".85"/><circle cx="199" cy="128" r="2" fill="#fff" opacity=".85"/><circle cx="709" cy="104" r="4" fill="#fff" opacity=".85"/><circle cx="264" cy="53" r="5" fill="#fff" opacity=".85"/><circle cx="434" cy="170" r="4" fill="#fff" opacity=".85"/><circle cx="691" cy="42" r="4" fill="#fff" opacity=".85"/><circle cx="753" cy="137" r="4" fill="#fff" opacity=".85"/><circle cx="636" cy="241" r="2" fill="#fff" opacity=".85"/><circle cx="220" cy="46" r="3" fill="#fff" opacity=".85"/><circle cx="475" cy="85" r="5" fill="#fff" opacity=".85"/><circle cx="177" cy="231" r="4" fill="#fff" opacity=".85"/><circle cx="41" cy="236" r="3" fill="#fff" opacity=".85"/><circle cx="430" cy="263" r="4" fill="#fff" opacity=".85"/><circle cx="258" cy="220" r="4" fill="#fff" opacity=".85"/><circle cx="582" cy="32" r="5" fill="#fff" opacity=".85"/><circle cx="769" cy="167" r="2" fill="#fff" opacity=".85"/><circle cx="70" cy="130" r="2" fill="#fff" opacity=".85"/><circle cx="84" cy="220" r="5" fill="#fff" opacity=".85"/><circle cx="454" cy="94" r="3" fill="#fff" opacity=".85"/><g transform="translate(189 161)"><ellipse cx="0" cy="15" rx="45" ry="18" fill="#fff" opacity=".8"/><ellipse cx="-28" cy="15" rx="25" ry="13" fill="#fff" opacity=".8"/><ellipse cx="28" cy="15" rx="25" ry="13" fill="#fff" opacity=".8"/></g><g transform="translate(607 161)"><ellipse cx="0" cy="15" rx="45" ry="18" fill="#fff" opacity=".8"/><ellipse cx="-28" cy="15" rx="25" ry="13" fill="#fff" opacity=".8"/><ellipse cx="28" cy="15" rx="25" ry="13" fill="#fff" opacity=".8"/></g><path d="M0 470 Q150 390 300 465 T600 455 T820 465 V600 H0Z" fill="#d7e9ff"/><path d="M30 520 L48 447 L66 520Z" fill="#c9b6ff"/><rect x="45" y="515" width="6" height="28" fill="#a47659"/><path d="M125 520 L143 447 L161 520Z" fill="#c9b6ff"/><rect x="140" y="515" width="6" height="28" fill="#a47659"/><path d="M220 520 L238 447 L256 520Z" fill="#c9b6ff"/><rect x="235" y="515" width="6" height="28" fill="#a47659"/><path d="M315 520 L333 447 L351 520Z" fill="#c9b6ff"/><rect x="330" y="515" width="6" height="28" fill="#a47659"/><path d="M410 520 L428 447 L446 520Z" fill="#c9b6ff"/><rect x="425" y="515" width="6" height="28" fill="#a47659"/><path d="M505 520 L523 447 L541 520Z" fill="#c9b6ff"/><rect x="520" y="515" width="6" height="28" fill="#a47659"/><path d="M600 520 L618 447 L636 520Z" fill="#c9b6ff"/><rect x="615" y="515" width="6" height="28" fill="#a47659"/><path d="M695 520 L713 447 L731 520Z" fill="#c9b6ff"/><rect x="710" y="515" width="6" height="28" fill="#a47659"/><path d="M790 520 L808 447 L826 520Z" fill="#c9b6ff"/><rect x="805" y="515" width="6" height="28" fill="#a47659"/><g transform="translate(410 350)"><circle cy="-55" r="34" fill="#ffd8c0"/><path d="M-32 -70 Q0 -115 32 -70 Q0 -135 -32 -70" fill="#8d67d8"/><path d="M-12 -20 L0 65 L12 -20Z" fill="#ffc6e0"/><ellipse cx="-48" cy="10" rx="58" ry="25" fill="#fff" opacity=".8" transform="rotate(-25 -48 10)"/><ellipse cx="48" cy="10" rx="58" ry="25" fill="#fff" opacity=".8" transform="rotate(25 48 10)"/></g><text x="410" y="565" text-anchor="middle" font-family="sans-serif" font-size="25" font-weight="700" fill="#704b87">Foresta delle Fate • 14</text></svg>