<svg xmlns="http://www.w3.org/2000/svg" width="820" height="600"><defs><linearGradient id="g" x2="0" y2="1"><stop stop-color="#d8f7ff"/><stop offset="1" stop-color="#fff"/></linearGradient></defs><rect width="820" height="600" fill="url(#g)"/><circle cx="246" cy="34" r="3" fill="#fff" opacity=".85"/><circle cx="359" cy="176" r="2" fill="#fff" opacity=".85"/><circle cx="765" cy="83" r="2" fill="#fff" opacity=".85"/><circle cx="693" cy="77" r="4" fill="#fff" opacity=".85"/><circle cx="404" cy="98" r="4" fill="#fff" opacity=".85"/><circle cx="153" cy="94" r="3" fill="#fff" opacity=".85"/><circle cx="748" cy="146" r="3" fill="#fff" opacity=".85"/><circle cx="135" cy="173" r="2" fill="#fff" opacity=".85"/><circle cx="633" cy="261" r="5" fill="#fff" opacity=".85"/><circle cx="296" cy="174" r="2" fill="#fff" opacity=".85"/><circle cx="726" cy="84" r="4" fill="#fff" opacity=".85"/><circle cx="204" cy="267" r="3" fill="#fff" opacity=".85"/><circle cx="242" cy="202" r="2" fill="#fff" opacity=".85"/><circle cx="757" cy="99" r="4" fill="#fff" opacity=".85"/><circle cx="381" cy="57" r="3" fill="#fff" opacity=".85"/><circle cx="654" cy="77" r="2" fill="#fff" opacity=".85"/><circle cx="420" cy="167" r="5" fill="#fff" opacity=".85"/><circle cx="60" cy="134" r="4" fill="#fff" opacity=".85"/><circle cx="397" cy="42" r="3" fill="#fff" opacity=".85"/><circle cx="730" cy="111" r="4" fill="#fff" opacity=".85"/><g transform="translate(166 134)"><ellipse cx="0" cy="15" rx="45" ry="18" fill="#fff" opacity=".8"/><ellipse cx="-28" cy="15" rx="25" ry="13" fill="#fff" opacity=".8"/><ellipse cx="28" cy="15" rx="25" ry="13" fill="#fff" opacity=".8"/></g><g transform="translate(598 134)"><ellipse cx="0" cy="15" rx="45" ry="18" fill="#fff" opacity=".8"/><ellipse cx="-28" cy="15" rx="25" ry="13" fill="#fff" opacity=".8"/><ellipse cx="28" cy="15" rx="25" ry="13" fill="#fff" opacity=".8"/></g><path d="M0 470 Q150 390 300 465 T600 455 T820 465 V600 H0Z" fill="#ccebd2"/><path d="M30 520 L48 439 L66 520Z" fill="#9edcff"/><rect x="45" y="515" width="6" height="28" fill="#a47659"/><path d="M125 520 L143 439 L161 520Z" fill="#9edcff"/><rect x="140" y="515" width="6" height="28" fill="#a47659"/><path d="M220 520 L238 439 L256 520Z" fill="#9edcff"/><rect x="235" y="515" width="6" height="28" fill="#a47659"/><path d="M315 520 L333 439 L351 520Z" fill="#9edcff"/><rect x="330" y="515" width="6" height="28" fill="#a47659"/><path d="M410 520 L428 439 L446 520Z" fill="#9edcff"/><rect x="425" y="515" width="6" height="28" fill="#a47659"/><path d="M505 520 L523 439 L541 520Z" fill="#9edcff"/><rect x="520" y="515" width="6" height="28" fill="#a47659"/><path d="M600 520 L618 439 L636 520Z" fill="#9edcff"/><rect x="615" y="515" width="6" height="28" fill="#a47659"/><path d="M695 520 L713 439 L731 520Z" fill="#9edcff"/><rect x="710" y="515" width="6" height="28" fill="#a47659"/><path d="M790 520 L808 439 L826 520Z" fill="#9edcff"/><rect x="805" y="515" width="6" height="28" fill="#a47659"/><g transform="translate(420 340)"><circle cx="0" cy="-48" r="45" fill="#ffd8c0"/><path d="M-45 -45 Q0 -105 45 -45 Q15 -80 0 -65 Q-25 -90 -45 -45" fill="#ff79b2"/><path d="M-35 -5 Q0 20 35 -5 L60 100 Q0 145 -60 100Z" fill="#ffd79a"/><path d="M-60 100 Q-105 125 -105 88 Q-75 70 -45 65 M60 100 Q105 125 105 88 Q75 70 45 65" fill="#9edcff"/></g><text x="410" y="565" text-anchor="middle" font-family="sans-serif" font-size="25" font-weight="700" fill="#704b87">Laguna delle Sirene • 3</text></svg>