<svg xmlns="http://www.w3.org/2000/svg" width="820" height="600"><defs><linearGradient id="g" x2="0" y2="1"><stop stop-color="#dff7ff"/><stop offset="1" stop-color="#fff"/></linearGradient></defs><rect width="820" height="600" fill="url(#g)"/><circle cx="63" cy="173" r="4" fill="#fff" opacity=".85"/><circle cx="786" cy="167" r="3" fill="#fff" opacity=".85"/><circle cx="714" cy="35" r="2" fill="#fff" opacity=".85"/><circle cx="220" cy="81" r="2" fill="#fff" opacity=".85"/><circle cx="574" cy="44" r="4" fill="#fff" opacity=".85"/><circle cx="742" cy="89" r="5" fill="#fff" opacity=".85"/><circle cx="718" cy="177" r="3" fill="#fff" opacity=".85"/><circle cx="505" cy="49" r="4" fill="#fff" opacity=".85"/><circle cx="211" cy="180" r="4" fill="#fff" opacity=".85"/><circle cx="65" cy="41" r="5" fill="#fff" opacity=".85"/><circle cx="285" cy="84" r="3" fill="#fff" opacity=".85"/><circle cx="629" cy="39" r="2" fill="#fff" opacity=".85"/><circle cx="341" cy="265" r="3" fill="#fff" opacity=".85"/><circle cx="761" cy="25" r="4" fill="#fff" opacity=".85"/><circle cx="198" cy="49" r="4" fill="#fff" opacity=".85"/><circle cx="261" cy="101" r="5" fill="#fff" opacity=".85"/><circle cx="119" cy="180" r="5" fill="#fff" opacity=".85"/><circle cx="601" cy="188" r="3" fill="#fff" opacity=".85"/><circle cx="495" cy="30" r="3" fill="#fff" opacity=".85"/><circle cx="334" cy="243" r="5" fill="#fff" opacity=".85"/><g transform="translate(200 160)"><ellipse cx="0" cy="15" rx="45" ry="18" fill="#fff" opacity=".8"/><ellipse cx="-28" cy="15" rx="25" ry="13" fill="#fff" opacity=".8"/><ellipse cx="28" cy="15" rx="25" ry="13" fill="#fff" opacity=".8"/></g><g transform="translate(600 160)"><ellipse cx="0" cy="15" rx="45" ry="18" fill="#fff" opacity=".8"/><ellipse cx="-28" cy="15" rx="25" ry="13" fill="#fff" opacity=".8"/><ellipse cx="28" cy="15" rx="25" ry="13" fill="#fff" opacity=".8"/></g><path d="M0 470 Q150 390 300 465 T600 455 T820 465 V600 H0Z" fill="#ffdff2"/><path d="M30 520 L48 455 L66 520Z" fill="#bce8cf"/><rect x="45" y="515" width="6" height="28" fill="#a47659"/><path d="M125 520 L143 455 L161 520Z" fill="#bce8cf"/><rect x="140" y="515" width="6" height="28" fill="#a47659"/><path d="M220 520 L238 455 L256 520Z" fill="#bce8cf"/><rect x="235" y="515" width="6" height="28" fill="#a47659"/><path d="M315 520 L333 455 L351 520Z" fill="#bce8cf"/><rect x="330" y="515" width="6" height="28" fill="#a47659"/><path d="M410 520 L428 455 L446 520Z" fill="#bce8cf"/><rect x="425" y="515" width="6" height="28" fill="#a47659"/><path d="M505 520 L523 455 L541 520Z" fill="#bce8cf"/><rect x="520" y="515" width="6" height="28" fill="#a47659"/><path d="M600 520 L618 455 L636 520Z" fill="#bce8cf"/><rect x="615" y="515" width="6" height="28" fill="#a47659"/><path d="M695 520 L713 455 L731 520Z" fill="#bce8cf"/><rect x="710" y="515" width="6" height="28" fill="#a47659"/><path d="M790 520 L808 455 L826 520Z" fill="#bce8cf"/><rect x="805" y="515" width="6" height="28" fill="#a47659"/><g transform="translate(385 345)"><ellipse cx="60" cy="80" rx="80" ry="48" fill="#fff0a8"/><circle cx="-5" cy="55" r="43" fill="#fff0a8"/><path d="M-28 25 L-8 -18 L10 30Z" fill="#fff1a8"/><path d="M-18 42 Q-50 20 -65 50 Q-45 72 -15 65" fill="#bce8cf"/><circle cx="-15" cy="48" r="5" fill="#55345e"/><path d="M20 30 Q45 5 65 30" stroke="#bd8cff" stroke-width="7" fill="none"/><path d="M120 58 Q165 25 185 55 Q155 85 128 85" fill="#bce8cf"/></g><text x="410" y="565" text-anchor="middle" font-family="sans-serif" font-size="25" font-weight="700" fill="#704b87">Valle degli Unicorni • 61</text></svg>