<svg xmlns="http://www.w3.org/2000/svg" width="820" height="600"><defs><linearGradient id="g" x2="0" y2="1"><stop stop-color="#d8f7ff"/><stop offset="1" stop-color="#fff"/></linearGradient></defs><rect width="820" height="600" fill="url(#g)"/><circle cx="295" cy="257" r="4" fill="#fff" opacity=".85"/><circle cx="622" cy="162" r="3" fill="#fff" opacity=".85"/><circle cx="771" cy="255" r="5" fill="#fff" opacity=".85"/><circle cx="440" cy="25" r="2" fill="#fff" opacity=".85"/><circle cx="332" cy="173" r="2" fill="#fff" opacity=".85"/><circle cx="775" cy="145" r="5" fill="#fff" opacity=".85"/><circle cx="582" cy="60" r="5" fill="#fff" opacity=".85"/><circle cx="382" cy="34" r="2" fill="#fff" opacity=".85"/><circle cx="412" cy="61" r="4" fill="#fff" opacity=".85"/><circle cx="454" cy="244" r="3" fill="#fff" opacity=".85"/><circle cx="215" cy="232" r="3" fill="#fff" opacity=".85"/><circle cx="137" cy="49" r="5" fill="#fff" opacity=".85"/><circle cx="502" cy="146" r="2" fill="#fff" opacity=".85"/><circle cx="272" cy="166" r="3" fill="#fff" opacity=".85"/><circle cx="229" cy="147" r="4" fill="#fff" opacity=".85"/><circle cx="273" cy="244" r="3" fill="#fff" opacity=".85"/><circle cx="630" cy="54" r="4" fill="#fff" opacity=".85"/><circle cx="29" cy="160" r="5" fill="#fff" opacity=".85"/><circle cx="178" cy="60" r="3" fill="#fff" opacity=".85"/><circle cx="512" cy="189" r="3" fill="#fff" opacity=".85"/><g transform="translate(186 154)"><ellipse cx="0" cy="15" rx="45" ry="18" fill="#fff" opacity=".8"/><ellipse cx="-28" cy="15" rx="25" ry="13" fill="#fff" opacity=".8"/><ellipse cx="28" cy="15" rx="25" ry="13" fill="#fff" opacity=".8"/></g><g transform="translate(578 154)"><ellipse cx="0" cy="15" rx="45" ry="18" fill="#fff" opacity=".8"/><ellipse cx="-28" cy="15" rx="25" ry="13" fill="#fff" opacity=".8"/><ellipse cx="28" cy="15" rx="25" ry="13" fill="#fff" opacity=".8"/></g><path d="M0 470 Q150 390 300 465 T600 455 T820 465 V600 H0Z" fill="#ccebd2"/><path d="M30 520 L48 447 L66 520Z" fill="#9edcff"/><rect x="45" y="515" width="6" height="28" fill="#a47659"/><path d="M125 520 L143 447 L161 520Z" fill="#9edcff"/><rect x="140" y="515" width="6" height="28" fill="#a47659"/><path d="M220 520 L238 447 L256 520Z" fill="#9edcff"/><rect x="235" y="515" width="6" height="28" fill="#a47659"/><path d="M315 520 L333 447 L351 520Z" fill="#9edcff"/><rect x="330" y="515" width="6" height="28" fill="#a47659"/><path d="M410 520 L428 447 L446 520Z" fill="#9edcff"/><rect x="425" y="515" width="6" height="28" fill="#a47659"/><path d="M505 520 L523 447 L541 520Z" fill="#9edcff"/><rect x="520" y="515" width="6" height="28" fill="#a47659"/><path d="M600 520 L618 447 L636 520Z" fill="#9edcff"/><rect x="615" y="515" width="6" height="28" fill="#a47659"/><path d="M695 520 L713 447 L731 520Z" fill="#9edcff"/><rect x="710" y="515" width="6" height="28" fill="#a47659"/><path d="M790 520 L808 447 L826 520Z" fill="#9edcff"/><rect x="805" y="515" width="6" height="28" fill="#a47659"/><g transform="translate(420 340)"><circle cx="0" cy="-48" r="45" fill="#ffd8c0"/><path d="M-45 -45 Q0 -105 45 -45 Q15 -80 0 -65 Q-25 -90 -45 -45" fill="#ff79b2"/><path d="M-35 -5 Q0 20 35 -5 L60 100 Q0 145 -60 100Z" fill="#ffd79a"/><path d="M-60 100 Q-105 125 -105 88 Q-75 70 -45 65 M60 100 Q105 125 105 88 Q75 70 45 65" fill="#9edcff"/></g><text x="410" y="565" text-anchor="middle" font-family="sans-serif" font-size="25" font-weight="700" fill="#704b87">Laguna delle Sirene • 23</text></svg>