<svg xmlns="http://www.w3.org/2000/svg" width="820" height="600"><defs><linearGradient id="g" x2="0" y2="1"><stop stop-color="#ffe8f4"/><stop offset="1" stop-color="#fff"/></linearGradient></defs><rect width="820" height="600" fill="url(#g)"/><circle cx="646" cy="145" r="2" fill="#fff" opacity=".85"/><circle cx="484" cy="157" r="3" fill="#fff" opacity=".85"/><circle cx="164" cy="244" r="5" fill="#fff" opacity=".85"/><circle cx="484" cy="247" r="5" fill="#fff" opacity=".85"/><circle cx="101" cy="179" r="4" fill="#fff" opacity=".85"/><circle cx="667" cy="277" r="5" fill="#fff" opacity=".85"/><circle cx="246" cy="209" r="4" fill="#fff" opacity=".85"/><circle cx="531" cy="168" r="4" fill="#fff" opacity=".85"/><circle cx="84" cy="80" r="5" fill="#fff" opacity=".85"/><circle cx="440" cy="51" r="5" fill="#fff" opacity=".85"/><circle cx="472" cy="233" r="5" fill="#fff" opacity=".85"/><circle cx="744" cy="229" r="3" fill="#fff" opacity=".85"/><circle cx="455" cy="197" r="3" fill="#fff" opacity=".85"/><circle cx="27" cy="182" r="5" fill="#fff" opacity=".85"/><circle cx="794" cy="250" r="2" fill="#fff" opacity=".85"/><circle cx="526" cy="156" r="3" fill="#fff" opacity=".85"/><circle cx="433" cy="133" r="4" fill="#fff" opacity=".85"/><circle cx="123" cy="139" r="4" fill="#fff" opacity=".85"/><circle cx="568" cy="277" r="3" fill="#fff" opacity=".85"/><circle cx="617" cy="221" r="3" fill="#fff" opacity=".85"/><g transform="translate(191 139)"><ellipse cx="0" cy="15" rx="45" ry="18" fill="#fff" opacity=".8"/><ellipse cx="-28" cy="15" rx="25" ry="13" fill="#fff" opacity=".8"/><ellipse cx="28" cy="15" rx="25" ry="13" fill="#fff" opacity=".8"/></g><g transform="translate(613 139)"><ellipse cx="0" cy="15" rx="45" ry="18" fill="#fff" opacity=".8"/><ellipse cx="-28" cy="15" rx="25" ry="13" fill="#fff" opacity=".8"/><ellipse cx="28" cy="15" rx="25" ry="13" fill="#fff" opacity=".8"/></g><path d="M0 470 Q150 390 300 465 T600 455 T820 465 V600 H0Z" fill="#e2d8ff"/><path d="M30 520 L48 455 L66 520Z" fill="#a9e8d5"/><rect x="45" y="515" width="6" height="28" fill="#a47659"/><path d="M125 520 L143 455 L161 520Z" fill="#a9e8d5"/><rect x="140" y="515" width="6" height="28" fill="#a47659"/><path d="M220 520 L238 455 L256 520Z" fill="#a9e8d5"/><rect x="235" y="515" width="6" height="28" fill="#a47659"/><path d="M315 520 L333 455 L351 520Z" fill="#a9e8d5"/><rect x="330" y="515" width="6" height="28" fill="#a47659"/><path d="M410 520 L428 455 L446 520Z" fill="#a9e8d5"/><rect x="425" y="515" width="6" height="28" fill="#a47659"/><path d="M505 520 L523 455 L541 520Z" fill="#a9e8d5"/><rect x="520" y="515" width="6" height="28" fill="#a47659"/><path d="M600 520 L618 455 L636 520Z" fill="#a9e8d5"/><rect x="615" y="515" width="6" height="28" fill="#a47659"/><path d="M695 520 L713 455 L731 520Z" fill="#a9e8d5"/><rect x="710" y="515" width="6" height="28" fill="#a47659"/><path d="M790 520 L808 455 L826 520Z" fill="#a9e8d5"/><rect x="805" y="515" width="6" height="28" fill="#a47659"/><g><rect x="335" y="310" width="130" height="185" rx="60" fill="#ffd36e"/><path d="M335 340 L280 300 L285 375Z M465 340 L520 300 L515 375Z" fill="#a9e8d5"/><circle cx="375" cy="385" r="8" fill="#55345e"/><circle cx="425" cy="385" r="8" fill="#55345e"/></g><text x="410" y="565" text-anchor="middle" font-family="sans-serif" font-size="25" font-weight="700" fill="#704b87">Pianeta delle Caramelle • 88</text></svg>