<svg xmlns="http://www.w3.org/2000/svg" width="820" height="600"><defs><linearGradient id="g" x2="0" y2="1"><stop stop-color="#d8f7ff"/><stop offset="1" stop-color="#fff"/></linearGradient></defs><rect width="820" height="600" fill="url(#g)"/><circle cx="441" cy="166" r="2" fill="#fff" opacity=".85"/><circle cx="453" cy="76" r="4" fill="#fff" opacity=".85"/><circle cx="629" cy="83" r="3" fill="#fff" opacity=".85"/><circle cx="486" cy="155" r="5" fill="#fff" opacity=".85"/><circle cx="163" cy="120" r="3" fill="#fff" opacity=".85"/><circle cx="480" cy="130" r="4" fill="#fff" opacity=".85"/><circle cx="61" cy="91" r="2" fill="#fff" opacity=".85"/><circle cx="341" cy="237" r="2" fill="#fff" opacity=".85"/><circle cx="272" cy="219" r="5" fill="#fff" opacity=".85"/><circle cx="719" cy="266" r="5" fill="#fff" opacity=".85"/><circle cx="41" cy="85" r="4" fill="#fff" opacity=".85"/><circle cx="490" cy="103" r="4" fill="#fff" opacity=".85"/><circle cx="745" cy="34" r="2" fill="#fff" opacity=".85"/><circle cx="426" cy="56" r="4" fill="#fff" opacity=".85"/><circle cx="409" cy="62" r="2" fill="#fff" opacity=".85"/><circle cx="271" cy="200" r="5" fill="#fff" opacity=".85"/><circle cx="769" cy="189" r="5" fill="#fff" opacity=".85"/><circle cx="414" cy="95" r="3" fill="#fff" opacity=".85"/><circle cx="276" cy="205" r="2" fill="#fff" opacity=".85"/><circle cx="673" cy="206" r="2" fill="#fff" opacity=".85"/><g transform="translate(222 118)"><ellipse cx="0" cy="15" rx="45" ry="18" fill="#fff" opacity=".8"/><ellipse cx="-28" cy="15" rx="25" ry="13" fill="#fff" opacity=".8"/><ellipse cx="28" cy="15" rx="25" ry="13" fill="#fff" opacity=".8"/></g><g transform="translate(606 118)"><ellipse cx="0" cy="15" rx="45" ry="18" fill="#fff" opacity=".8"/><ellipse cx="-28" cy="15" rx="25" ry="13" fill="#fff" opacity=".8"/><ellipse cx="28" cy="15" rx="25" ry="13" fill="#fff" opacity=".8"/></g><path d="M0 470 Q150 390 300 465 T600 455 T820 465 V600 H0Z" fill="#ccebd2"/><path d="M30 520 L48 447 L66 520Z" fill="#9edcff"/><rect x="45" y="515" width="6" height="28" fill="#a47659"/><path d="M125 520 L143 447 L161 520Z" fill="#9edcff"/><rect x="140" y="515" width="6" height="28" fill="#a47659"/><path d="M220 520 L238 447 L256 520Z" fill="#9edcff"/><rect x="235" y="515" width="6" height="28" fill="#a47659"/><path d="M315 520 L333 447 L351 520Z" fill="#9edcff"/><rect x="330" y="515" width="6" height="28" fill="#a47659"/><path d="M410 520 L428 447 L446 520Z" fill="#9edcff"/><rect x="425" y="515" width="6" height="28" fill="#a47659"/><path d="M505 520 L523 447 L541 520Z" fill="#9edcff"/><rect x="520" y="515" width="6" height="28" fill="#a47659"/><path d="M600 520 L618 447 L636 520Z" fill="#9edcff"/><rect x="615" y="515" width="6" height="28" fill="#a47659"/><path d="M695 520 L713 447 L731 520Z" fill="#9edcff"/><rect x="710" y="515" width="6" height="28" fill="#a47659"/><path d="M790 520 L808 447 L826 520Z" fill="#9edcff"/><rect x="805" y="515" width="6" height="28" fill="#a47659"/><g transform="translate(420 360)"><ellipse cy="65" rx="105" ry="70" fill="#9edcff"/><circle cx="-60" cy="0" r="55" fill="#9edcff"/><path d="M-95 -30 L-130 -80 L-70 -55Z M-40 -35 L-5 -80 L0 -30Z" fill="#ffd79a"/><circle cx="-75" cy="-8" r="7" fill="#55345e"/><path d="M45 25 Q110 -10 145 25 Q100 48 55 55" fill="#ffd79a"/></g><text x="410" y="565" text-anchor="middle" font-family="sans-serif" font-size="25" font-weight="700" fill="#704b87">Drago Gentile • 35</text></svg>